<svg id="Layer_1" data-name="Layer 1" xmlns="http://www.w3.org/2000/svg" viewBox="0 0 518.49 98.3"><defs><style>.cls-1{fill:#f75d5d;}</style></defs><path class="cls-1" d="M38.2,28.2A10.72,10.72,0,0,0,31,31.35a29,29,0,0,0-6.2,8.4A55.75,55.75,0,0,0,18.9,64.5q0,5.4,2.2,7.8a7.5,7.5,0,0,0,5.8,2.4A12,12,0,0,0,32.8,73a19.68,19.68,0,0,0,6.1-6.3l2,.8a36.71,36.71,0,0,1-5.25,6.4,25.3,25.3,0,0,1-7.5,5A24.61,24.61,0,0,1,18,80.9,20.68,20.68,0,0,1,5.3,77.1Q.2,73.3.2,65.1A37.74,37.74,0,0,1,2.75,51.8,43.86,43.86,0,0,1,10.1,39.2a37.91,37.91,0,0,1,11.6-9.4,32,32,0,0,1,15.2-3.6q6.2,0,9.6,3.1a9.57,9.57,0,0,1,3.4,7.3,13,13,0,0,1-1.6,6.2,14.56,14.56,0,0,1-4.25,5,9.66,9.66,0,0,1-5.85,2,7,7,0,0,1-4.7-1.8,6.47,6.47,0,0,1-2.1-5.2,12.59,12.59,0,0,1,3.1-8.5,15,15,0,0,1,7.1-4.8,5.08,5.08,0,0,0-1.5-.9A5.41,5.41,0,0,0,38.2,28.2Z" transform="translate(-0.2)"/><path class="cls-1" d="M50.5,63.9a41.63,41.63,0,0,1,2-12.45,40.7,40.7,0,0,1,6.35-12.3A33.54,33.54,0,0,1,69.75,29.8,31.82,31.82,0,0,1,85.3,26.2q8.7,0,13.25,4.4t4.55,12.6a41.63,41.63,0,0,1-2,12.45A40.93,40.93,0,0,1,94.7,68,33.64,33.64,0,0,1,83.85,77.3,31.82,31.82,0,0,1,68.3,80.9q-8.7,0-13.25-4.4T50.5,63.9ZM84.8,28.2c-1.13,0-2.47.95-4,2.85a43,43,0,0,0-4.7,7.65,94.42,94.42,0,0,0-7.75,22.8A60,60,0,0,0,67.1,73.3a14.42,14.42,0,0,0,.45,4.35c.3.83.78,1.25,1.45,1.25,1.06,0,2.35-.9,3.85-2.7a39.91,39.91,0,0,0,4.6-7.3,85.64,85.64,0,0,0,4.4-10.4A93.3,93.3,0,0,0,85.2,46.35,62,62,0,0,0,86.5,34a13.83,13.83,0,0,0-.5-4.8C85.67,28.53,85.27,28.2,84.8,28.2Z" transform="translate(-0.2)"/><path class="cls-1" d="M128.1,74.7c.8,0,1.78-.57,3-1.7a24,24,0,0,0,3.85-5.55,70.23,70.23,0,0,0,4.3-10.15,151,151,0,0,0,4.3-15.4L142,52.7a142.89,142.89,0,0,1-5.75,15.5,26.45,26.45,0,0,1-6.65,9.5,14.58,14.58,0,0,1-9.7,3.2,13.2,13.2,0,0,1-9.05-3.4Q107,74.1,107,66.3a38.55,38.55,0,0,1,1.4-9.75,50.64,50.64,0,0,1,4.15-10.65,45.6,45.6,0,0,1,6.85-9.8,32.42,32.42,0,0,1,9.45-7.2,26.34,26.34,0,0,1,12.05-2.7c2.6,0,4.31.42,5.15,1.25a5.65,5.65,0,0,1,1.55,3.25l-.8,2a11.37,11.37,0,0,0-1-3.1c-.4-.73-1.27-1.1-2.6-1.1s-3.2,1.12-5.2,3.35a39.79,39.79,0,0,0-5.8,9,66.47,66.47,0,0,0-4.65,13A60.69,60.69,0,0,0,125.7,69a13.56,13.56,0,0,0,.5,4.25A1.88,1.88,0,0,0,128.1,74.7Zm25-3.7c-.6,1.67-.7,2.78-.3,3.35a1.77,1.77,0,0,0,1.5.85,4.26,4.26,0,0,0,2.3-1q1.4-1.05,3-5.25l2.1-5.6h1.9l-2.5,7.3q-2.21,6.3-6.25,8.3a18.12,18.12,0,0,1-8,2q-6.41,0-9-3.8a9.85,9.85,0,0,1-1.45-5.45,26.19,26.19,0,0,1,1.35-8l13.5-50.9c.66-2.27.6-3.93-.2-5s-2.84-1.6-6.1-1.6l.7-2.1A101.13,101.13,0,0,0,160.3,3,84.09,84.09,0,0,0,172.7,0Z" transform="translate(-0.2)"/><path class="cls-1" d="M185.1,58.5a46.6,46.6,0,0,0,6.3-3.6,43.58,43.58,0,0,0,5.7-4.6,34,34,0,0,0,6.55-8.9,23.41,23.41,0,0,0,2.55-10.8,3.54,3.54,0,0,0-.4-2,1.39,1.39,0,0,0-1.2-.55q-2.5,0-5.5,3.4a41.09,41.09,0,0,0-5.7,8.8A62.26,62.26,0,0,0,189,52a45.8,45.8,0,0,0-1.7,12c0,3.87.76,6.45,2.3,7.75a9,9,0,0,0,6,2,19.2,19.2,0,0,0,6-1.5,23.06,23.06,0,0,0,8-5.5l1.6.8a32.11,32.11,0,0,1-5.8,6.4,29.36,29.36,0,0,1-19.5,7,20.84,20.84,0,0,1-12.15-3.55q-5.16-3.55-5.15-10.55a38.13,38.13,0,0,1,1.85-11.7,44.79,44.79,0,0,1,5.25-11,42.73,42.73,0,0,1,8.15-9.25A37.19,37.19,0,0,1,194.4,28.5a33.37,33.37,0,0,1,12.4-2.3,16.87,16.87,0,0,1,8.85,2.15A7.24,7.24,0,0,1,219.2,35a13.75,13.75,0,0,1-2,7.15,22.58,22.58,0,0,1-5.5,6.1,46.94,46.94,0,0,1-7.9,5,69.5,69.5,0,0,1-9.25,3.8A76.16,76.16,0,0,1,185,59.5Z" transform="translate(-0.2)"/><path class="cls-1" d="M228.4,78.1a5.83,5.83,0,0,0,1.65.55,10.58,10.58,0,0,0,1.85.15,7,7,0,0,0,5.15-2,7.54,7.54,0,0,0,2-5.55,18,18,0,0,0-1.6-7.1,57.1,57.1,0,0,0-4.2-7.8q-2.4-3.9-4.2-7.35a16.29,16.29,0,0,1-1.8-7.65,13.74,13.74,0,0,1,4.95-10.75q5-4.35,14.95-4.35a33,33,0,0,1,8.15,1,14.28,14.28,0,0,1,6.5,3.45q2.55,2.45,2.55,7.05a11.21,11.21,0,0,1-1.8,6,5.86,5.86,0,0,1-5.3,2.9,5.47,5.47,0,0,1-4.7-2.35,10,10,0,0,1-1.7-6,14.63,14.63,0,0,1,1-5.7,12.82,12.82,0,0,1,2.15-3.7,5.86,5.86,0,0,0-2.5-.4,6.6,6.6,0,0,0-5.25,2,8.87,8.87,0,0,0-1.85,5.8,12.26,12.26,0,0,0,1.85,6.7q2,3.3,4.05,6.9A63.68,63.68,0,0,1,255.05,59a19.48,19.48,0,0,1,1.35,7,13.32,13.32,0,0,1-2.25,7.5,15.62,15.62,0,0,1-6.7,5.45,26.33,26.33,0,0,1-11,2.05,33.93,33.93,0,0,1-9-1.15,14.39,14.39,0,0,1-6.9-4,10.73,10.73,0,0,1-2.65-7.7,10.52,10.52,0,0,1,1.85-6.3,5.78,5.78,0,0,1,4.95-2.6,5.61,5.61,0,0,1,4.7,2.4,10.41,10.41,0,0,1,1.8,6.4,16.16,16.16,0,0,1-1,5.9C229.45,75.7,228.86,77.1,228.4,78.1Z" transform="translate(-0.2)"/><path class="cls-1" d="M278.8,36.1q1.4-4.2-.9-4.2a3.85,3.85,0,0,0-2.8,1.35,15.54,15.54,0,0,0-2.7,5l-2.3,6.1h-1.9l2.8-7.8q2-5.59,5.85-7.95a17,17,0,0,1,9-2.35q5.1,0,7.5,2.2a8.59,8.59,0,0,1,2.8,5.4,14.22,14.22,0,0,1-.7,6.4L285.1,71c-.54,1.67-.64,2.78-.3,3.35a1.62,1.62,0,0,0,1.5.85,4.26,4.26,0,0,0,2.3-1q1.39-1.05,3-5.25l2.1-5.6h1.9l-2.5,7.3q-2.21,6.3-6.25,8.3a18.12,18.12,0,0,1-8.05,2,12.58,12.58,0,0,1-7.15-1.85,7.93,7.93,0,0,1-3.35-5.7q-.6-3.85,1.3-9.65ZM283,11.9c0-3.6,1.16-6.27,3.5-8a14.19,14.19,0,0,1,8.7-2.6q4.4,0,6.65,1.7a6,6,0,0,1,2.25,5.1,9.22,9.22,0,0,1-3.55,7.55,13.55,13.55,0,0,1-8.75,2.85q-4.31,0-6.55-1.7A5.77,5.77,0,0,1,283,11.9Z" transform="translate(-0.2)"/><path class="cls-1" d="M324,56.8l6-.8a66.68,66.68,0,0,0-9.4,3.9c-2.07,1.13-3.1,2.17-3.1,3.1a1.58,1.58,0,0,0,.95,1.35A16.81,16.81,0,0,0,321,65.5l9.1,3.4a35.38,35.38,0,0,1,5.3,2.5,14.25,14.25,0,0,1,4.35,3.85,9.58,9.58,0,0,1,1.75,5.85,11.27,11.27,0,0,1-2.9,7.75A22,22,0,0,1,331,94.2a45.67,45.67,0,0,1-10.2,3.1,58.19,58.19,0,0,1-10.55,1,46.09,46.09,0,0,1-9.5-1,24.12,24.12,0,0,1-7.35-2.65q-2.85-1.7-2.85-4.1a4.2,4.2,0,0,1,2.2-3.55,17.11,17.11,0,0,1,5.55-2.25,46.83,46.83,0,0,1,6.9-1.1,41.64,41.64,0,0,1,6.35-.1l.1,1.5a14.91,14.91,0,0,0-4.55,3.55,5.68,5.68,0,0,0-1.35,3.45,3.81,3.81,0,0,0,1.7,3.3,8.42,8.42,0,0,0,4.9,1.2,22.11,22.11,0,0,0,6.85-1.15,18,18,0,0,0,6.05-3.25,6.11,6.11,0,0,0,2.5-4.7,3,3,0,0,0-1.65-3A22.49,22.49,0,0,0,321.9,83l-13.6-4.3a12,12,0,0,1-4.45-2.55,5.62,5.62,0,0,1-2-4.35,7.17,7.17,0,0,1,3-5.65,35.93,35.93,0,0,1,8.05-4.7Q318,59.2,324,56.8Zm6.4-30.5A23.55,23.55,0,0,1,342.1,29q4.69,2.65,4.7,8.75a16.4,16.4,0,0,1-3.25,9.45,24.31,24.31,0,0,1-9.2,7.65,30.86,30.86,0,0,1-14.05,3,23.17,23.17,0,0,1-11.7-2.7q-4.71-2.7-4.7-8.7a15.68,15.68,0,0,1,1.8-7.15,21.2,21.2,0,0,1,5.25-6.5,26.28,26.28,0,0,1,8.35-4.7A32.73,32.73,0,0,1,330.4,26.3Zm-2.6,1.8a3.47,3.47,0,0,0-2.6,1.75,17.67,17.67,0,0,0-2.35,4.85,41.34,41.34,0,0,0-1.65,7.1,57.36,57.36,0,0,0-.6,8.5,14.87,14.87,0,0,0,.45,4.5A1.54,1.54,0,0,0,322.5,56a3.69,3.69,0,0,0,2.85-1.85,18.36,18.36,0,0,0,2.4-5,40.06,40.06,0,0,0,1.6-7.15,62,62,0,0,0,.55-8.3,20,20,0,0,0-.35-3.85C329.31,28.68,328.73,28.1,327.8,28.1Zm11,3.5-2.1-.7a14.87,14.87,0,0,1,4.95-6.75A11.85,11.85,0,0,1,349,21.6a6.63,6.63,0,0,1,5.2,1.9,6.81,6.81,0,0,1,1.7,4.7,6.34,6.34,0,0,1-1.5,4.5,4.56,4.56,0,0,1-3.4,1.6A4.49,4.49,0,0,1,348,33a6.3,6.3,0,0,1-1.85-3.9,13,13,0,0,1,1.2-6.6l.4.7a15.87,15.87,0,0,0-5.5,3.2A15.19,15.19,0,0,0,338.8,31.6Z" transform="translate(-0.2)"/><path class="cls-1" d="M369.4,79.5H351.7l12.2-43.4a15.07,15.07,0,0,0,.6-2.5,1.71,1.71,0,0,0-.25-1.3,1.6,1.6,0,0,0-1.25-.4,3.85,3.85,0,0,0-2.8,1.35,15.54,15.54,0,0,0-2.7,5l-2.3,6.1h-1.9l2.8-7.8a16.39,16.39,0,0,1,5.2-7.8,13.66,13.66,0,0,1,8.5-2.5q5.29,0,7.65,2.15a8.52,8.52,0,0,1,2.75,5.4,16.37,16.37,0,0,1-.5,6.45Zm2.3-14.3q4.1-12.2,7.55-19.85A60,60,0,0,1,386,33.5a18.25,18.25,0,0,1,6.7-5.75,18,18,0,0,1,7.45-1.55q5,0,7.3,2a7.3,7.3,0,0,1,2.45,5.45,21.49,21.49,0,0,1-1.25,7.65L398.7,71c-.67,1.87-.75,3-.25,3.5a2.16,2.16,0,0,0,1.45.7,4.26,4.26,0,0,0,2.3-1q1.4-1.05,3-5.25l2.1-5.6h1.9l-2.5,7.3q-2.2,6.3-6.25,8.3a18.12,18.12,0,0,1-8.05,2q-6.4,0-9-3.6a9.62,9.62,0,0,1-1.65-5.25,24.52,24.52,0,0,1,1.55-8.35l8.6-25.9a16.26,16.26,0,0,0,.75-3,4.41,4.41,0,0,0,0-1.8.86.86,0,0,0-.9-.6q-2,0-4.9,4.15a71.67,71.67,0,0,0-6.05,11q-3.15,6.86-6.1,15.1T369.5,79.2Z" transform="translate(-0.2)"/><path class="cls-1" d="M431,58.5a46.6,46.6,0,0,0,6.3-3.6,43.58,43.58,0,0,0,5.7-4.6,34,34,0,0,0,6.55-8.9,23.41,23.41,0,0,0,2.55-10.8,3.54,3.54,0,0,0-.4-2,1.39,1.39,0,0,0-1.2-.55q-2.5,0-5.5,3.4a41.09,41.09,0,0,0-5.7,8.8A62.26,62.26,0,0,0,434.9,52a45.8,45.8,0,0,0-1.7,12c0,3.87.76,6.45,2.3,7.75a9,9,0,0,0,6,2,19.2,19.2,0,0,0,6-1.5,23.06,23.06,0,0,0,8-5.5l1.6.8a32.11,32.11,0,0,1-5.8,6.4,29.36,29.36,0,0,1-19.5,7,20.84,20.84,0,0,1-12.15-3.55q-5.16-3.55-5.15-10.55a38.13,38.13,0,0,1,1.85-11.7,44.79,44.79,0,0,1,5.25-11,42.73,42.73,0,0,1,8.15-9.25A37.19,37.19,0,0,1,440.3,28.5a33.37,33.37,0,0,1,12.4-2.3,16.87,16.87,0,0,1,8.85,2.15A7.24,7.24,0,0,1,465.1,35a13.75,13.75,0,0,1-2,7.15,22.58,22.58,0,0,1-5.5,6.1,46.94,46.94,0,0,1-7.9,5,69.5,69.5,0,0,1-9.25,3.8,76.16,76.16,0,0,1-9.55,2.5Z" transform="translate(-0.2)"/><path class="cls-1" d="M483.9,79.5H466.19L478.4,36.1a8.2,8.2,0,0,0,.39-3.25,1.15,1.15,0,0,0-1.29-1,3.88,3.88,0,0,0-2.81,1.35,15.77,15.77,0,0,0-2.69,5l-2.31,6.1h-1.9l2.81-7.8q2-5.59,5.84-7.95a17,17,0,0,1,9.06-2.35q4.59,0,6.69,2.15a8.81,8.81,0,0,1,2.46,5.4,18.22,18.22,0,0,1-.46,6.45Zm25.5-51.3a15.06,15.06,0,0,0-4,.6,10.42,10.42,0,0,0-4.5,3.05,31.68,31.68,0,0,0-5,7.85,109.18,109.18,0,0,0-5.66,15q-3,9.6-6.29,24.5l2.1-14q3-11.7,5.5-19.25a65.86,65.86,0,0,1,5-11.9A16.06,16.06,0,0,1,502,28a13.6,13.6,0,0,1,7-1.75q4.69,0,7.19,2.8a10,10,0,0,1,2.5,6.9,13.14,13.14,0,0,1-3.15,8.75,10.13,10.13,0,0,1-8.14,3.75,7.6,7.6,0,0,1-5.61-1.9,7.62,7.62,0,0,1-1.89-5.6,11.65,11.65,0,0,1,3.25-8,13.29,13.29,0,0,1,7.64-4.4c-.19-.07-.41-.13-.64-.2A2.66,2.66,0,0,0,509.4,28.2Z" transform="translate(-0.2)"/></svg>