<?xml version="1.0" encoding="utf-8"?>
<!-- Generator: Adobe Illustrator 25.2.3, SVG Export Plug-In . SVG Version: 6.00 Build 0)  -->
<svg version="1.1" id="Layer_1" xmlns="http://www.w3.org/2000/svg" xmlns:xlink="http://www.w3.org/1999/xlink" x="0px" y="0px"
	 viewBox="0 0 519 98" style="enable-background:new 0 0 519 98;" xml:space="preserve">
<g>
	<g>
		<path d="M38.2,28.2c-2.5,0-4.9,1-7.2,3.1c-2.3,2.1-4.4,4.9-6.2,8.4c-1.8,3.5-3.2,7.4-4.3,11.7c-1.1,4.3-1.6,8.6-1.6,13
			c0,3.6,0.7,6.2,2.2,7.8c1.5,1.6,3.4,2.4,5.8,2.4c1.9,0,3.9-0.6,5.9-1.7c2-1.1,4-3.2,6.1-6.3l2,0.8c-1.4,2.2-3.1,4.3-5.2,6.4
			C33.5,76,31,77.6,28.1,79c-2.9,1.3-6.3,1.9-10.1,1.9c-5.1,0-9.3-1.3-12.7-3.8c-3.4-2.5-5.1-6.5-5.1-12c0-4.3,0.8-8.8,2.5-13.3
			c1.7-4.5,4.1-8.7,7.4-12.6c3.2-3.9,7.1-7,11.6-9.4c4.5-2.4,9.6-3.6,15.2-3.6c4.1,0,7.3,1,9.6,3.1c2.3,2.1,3.4,4.5,3.4,7.3
			c0,2.1-0.5,4.2-1.6,6.2c-1.1,2-2.5,3.7-4.2,5c-1.8,1.3-3.7,2-5.8,2c-1.7,0-3.3-0.6-4.7-1.8c-1.4-1.2-2.1-2.9-2.1-5.2
			c0-3.3,1-6.1,3.1-8.5c2.1-2.4,4.4-4,7.1-4.8c-0.5-0.4-1-0.7-1.5-0.9C39.6,28.3,38.9,28.2,38.2,28.2z"/>
		<path d="M50.5,63.9c0-3.9,0.7-8.1,2-12.4c1.4-4.4,3.5-8.5,6.4-12.3c2.9-3.8,6.5-6.9,10.9-9.4c4.4-2.4,9.5-3.6,15.5-3.6
			c5.8,0,10.2,1.5,13.2,4.4c3,2.9,4.6,7.1,4.6,12.6c0,3.9-0.7,8.1-2.1,12.4c-1.4,4.4-3.5,8.5-6.4,12.3c-2.9,3.8-6.5,6.9-10.8,9.3
			c-4.4,2.4-9.6,3.6-15.6,3.6c-5.8,0-10.2-1.5-13.2-4.4C52,73.6,50.5,69.4,50.5,63.9z M84.8,28.2c-1.1,0-2.5,0.9-4,2.8
			c-1.5,1.9-3.1,4.5-4.7,7.7c-1.6,3.2-3.1,6.8-4.5,10.7c-1.4,3.9-2.5,8-3.3,12.1c-0.8,4.1-1.2,8.1-1.2,11.8c0,2.1,0.1,3.5,0.4,4.4
			c0.3,0.8,0.8,1.2,1.5,1.2c1.1,0,2.4-0.9,3.9-2.7c1.5-1.8,3-4.2,4.6-7.3c1.6-3.1,3-6.5,4.4-10.4c1.4-3.9,2.5-7.9,3.3-12.1
			c0.9-4.2,1.3-8.4,1.3-12.4c0-2.5-0.2-4.1-0.5-4.8C85.7,28.5,85.3,28.2,84.8,28.2z"/>
		<path d="M128.1,74.7c0.8,0,1.8-0.6,3-1.7c1.2-1.1,2.4-3,3.8-5.5c1.4-2.6,2.8-6,4.3-10.2c1.5-4.2,2.9-9.3,4.3-15.4L142,52.7
			c-1.9,6.1-3.9,11.3-5.8,15.5c-1.9,4.2-4.1,7.4-6.6,9.5c-2.5,2.1-5.8,3.2-9.7,3.2c-3.5,0-6.5-1.1-9-3.4c-2.6-2.3-3.9-6-3.9-11.2
			c0-2.9,0.5-6.2,1.4-9.8c0.9-3.6,2.3-7.1,4.2-10.6c1.8-3.5,4.1-6.8,6.8-9.8c2.7-3,5.9-5.4,9.5-7.2c3.6-1.8,7.6-2.7,12-2.7
			c2.6,0,4.3,0.4,5.2,1.2c0.8,0.8,1.3,1.9,1.5,3.2l-0.8,2c-0.3-1.3-0.6-2.4-1-3.1c-0.4-0.7-1.3-1.1-2.6-1.1c-1.5,0-3.2,1.1-5.2,3.4
			c-2,2.2-3.9,5.2-5.8,9c-1.9,3.8-3.4,8.1-4.6,13c-1.2,4.8-1.9,9.9-1.9,15.1c0,1.9,0.2,3.3,0.5,4.2
			C126.5,74.2,127.2,74.7,128.1,74.7z M153.1,71c-0.6,1.7-0.7,2.8-0.3,3.4c0.4,0.6,0.9,0.9,1.5,0.9c0.6,0,1.4-0.4,2.3-1.1
			c0.9-0.7,1.9-2.4,3-5.2l2.1-5.6h1.9l-2.5,7.3c-1.5,4.2-3.5,7-6.2,8.3c-2.7,1.3-5.4,2-8,2c-4.3,0-7.3-1.3-9-3.8
			c-0.9-1.4-1.4-3.2-1.5-5.5c0-2.2,0.4-4.9,1.4-7.9l13.5-50.9c0.7-2.3,0.6-3.9-0.2-5c-0.8-1.1-2.8-1.6-6.1-1.6l0.7-2.1
			C151.1,4,156,3.6,160.3,3c4.3-0.7,8.5-1.7,12.4-3L153.1,71z"/>
		<path d="M185.1,58.5c2.1-1,4.2-2.2,6.3-3.6c2.1-1.4,4-2.9,5.7-4.6c2.7-2.6,4.8-5.6,6.5-8.9c1.7-3.3,2.5-6.9,2.5-10.8
			c0-0.9-0.1-1.6-0.4-2c-0.3-0.4-0.7-0.5-1.2-0.5c-1.7,0-3.5,1.1-5.5,3.4c-2,2.3-3.9,5.2-5.7,8.8c-1.8,3.6-3.3,7.5-4.4,11.7
			c-1.1,4.2-1.7,8.2-1.7,12c0,3.9,0.8,6.5,2.3,7.8c1.5,1.3,3.5,2,6,2c1.3,0,3.3-0.5,6-1.5c2.7-1,5.3-2.8,8-5.5l1.6,0.8
			c-1.5,2.2-3.4,4.3-5.8,6.4c-2.4,2.1-5.2,3.8-8.5,5.1c-3.3,1.3-6.9,1.9-11,1.9c-4.7,0-8.7-1.2-12.1-3.5c-3.4-2.4-5.1-5.9-5.1-10.6
			c0-3.9,0.6-7.8,1.8-11.7c1.2-3.9,3-7.5,5.2-11c2.3-3.5,5-6.6,8.2-9.2c3.2-2.7,6.7-4.8,10.5-6.4c3.9-1.5,8-2.3,12.4-2.3
			c3.5,0,6.5,0.7,8.9,2.1c2.4,1.4,3.5,3.6,3.5,6.6c0,2.5-0.7,4.9-2,7.1c-1.3,2.2-3.2,4.3-5.5,6.1c-2.3,1.8-5,3.5-7.9,5
			c-2.9,1.5-6,2.7-9.2,3.8c-3.2,1.1-6.4,1.9-9.5,2.5L185.1,58.5z"/>
		<path d="M228.4,78.1c0.5,0.3,1.1,0.4,1.6,0.5c0.6,0.1,1.2,0.1,1.9,0.1c2.1,0,3.8-0.7,5.1-2c1.4-1.4,2.1-3.2,2.1-5.5
			c0-2.3-0.5-4.6-1.6-7.1c-1.1-2.5-2.5-5.1-4.2-7.8c-1.6-2.6-3-5-4.2-7.3c-1.2-2.3-1.8-4.9-1.8-7.7c0-4.3,1.7-7.8,5-10.8
			c3.3-2.9,8.3-4.3,15-4.3c2.8,0,5.5,0.3,8.1,1c2.6,0.7,4.8,1.8,6.5,3.4c1.7,1.6,2.5,4,2.5,7.1c0,2.1-0.6,4.1-1.8,6
			c-1.2,1.9-3,2.9-5.3,2.9c-2,0-3.6-0.8-4.7-2.4c-1.1-1.6-1.7-3.6-1.7-6c0-2.1,0.4-4,1.1-5.7c0.7-1.7,1.4-2.9,2.1-3.7
			c-0.5-0.3-1.4-0.4-2.5-0.4c-2.3,0-4.1,0.7-5.2,2c-1.2,1.3-1.8,3.3-1.9,5.8c-0.1,2.3,0.5,4.5,1.9,6.7c1.3,2.2,2.6,4.5,4,6.9
			c2.2,3.7,3.8,6.8,4.6,9.2c0.9,2.4,1.4,4.7,1.4,6.9c0,2.7-0.8,5.2-2.2,7.5c-1.5,2.3-3.7,4.1-6.7,5.5c-3,1.4-6.7,2-11.1,2
			c-3.1,0-6.1-0.4-8.9-1.1c-2.8-0.8-5.1-2.1-6.9-4c-1.8-1.9-2.6-4.4-2.6-7.7c0-2.5,0.6-4.6,1.9-6.3c1.2-1.7,2.9-2.6,5-2.6
			c1.9,0,3.5,0.8,4.7,2.4c1.2,1.6,1.8,3.7,1.8,6.4c0,2.1-0.4,4.1-1.1,5.9C229.4,75.7,228.9,77.1,228.4,78.1z"/>
		<path d="M278.8,36.1c0.9-2.8,0.6-4.2-0.9-4.2c-1,0-1.9,0.5-2.8,1.4c-0.9,0.9-1.8,2.5-2.7,5l-2.3,6.1h-1.9l2.8-7.8
			c1.3-3.7,3.3-6.4,5.9-8c2.6-1.6,5.6-2.3,9-2.3c3.4,0,5.9,0.7,7.5,2.2c1.6,1.5,2.5,3.3,2.8,5.4c0.3,2.1,0,4.3-0.7,6.4L285.1,71
			c-0.5,1.7-0.6,2.8-0.3,3.4c0.3,0.6,0.8,0.9,1.5,0.9c0.6,0,1.4-0.4,2.3-1.1c0.9-0.7,1.9-2.4,3-5.2l2.1-5.6h1.9l-2.5,7.3
			c-1.5,4.2-3.5,7-6.2,8.3c-2.7,1.3-5.4,2-8,2c-2.9,0-5.3-0.6-7.2-1.9c-1.8-1.2-2.9-3.1-3.3-5.7c-0.4-2.6,0-5.8,1.3-9.6L278.8,36.1z
			 M283,11.9c0-3.6,1.2-6.3,3.5-8c2.3-1.7,5.2-2.6,8.7-2.6c2.9,0,5.1,0.6,6.6,1.7c1.5,1.1,2.2,2.8,2.2,5.1c0,3.1-1.2,5.6-3.5,7.5
			c-2.4,1.9-5.3,2.9-8.8,2.9c-2.9,0-5.1-0.6-6.6-1.7C283.7,15.7,283,14,283,11.9z"/>
		<path d="M324,56.8l6-0.8c-4.2,1.5-7.3,2.8-9.4,3.9c-2.1,1.1-3.1,2.2-3.1,3.1c0,0.5,0.3,1,1,1.4c0.6,0.4,1.5,0.8,2.5,1.1l9.1,3.4
			c1.8,0.7,3.6,1.5,5.3,2.5c1.7,1,3.2,2.3,4.3,3.9c1.2,1.6,1.8,3.5,1.8,5.9c0,3-1,5.6-2.9,7.8c-1.9,2.2-4.5,3.9-7.6,5.4
			c-3.2,1.4-6.6,2.4-10.2,3.1c-3.6,0.7-7.1,1-10.5,1c-3.3,0-6.5-0.3-9.5-0.9c-3-0.6-5.5-1.5-7.4-2.6c-1.9-1.1-2.9-2.5-2.9-4.1
			c0-1.4,0.7-2.6,2.2-3.6c1.5-1,3.3-1.7,5.5-2.2c2.2-0.5,4.5-0.9,6.9-1.1c2.4-0.2,4.5-0.2,6.3-0.1l0.1,1.5c-2.1,1.2-3.6,2.4-4.5,3.5
			c-0.9,1.2-1.4,2.3-1.4,3.5c0,1.4,0.6,2.5,1.7,3.3c1.1,0.8,2.8,1.2,4.9,1.2c2.2,0,4.5-0.4,6.9-1.1c2.4-0.8,4.4-1.9,6-3.2
			c1.7-1.4,2.5-3,2.5-4.7c0-1.4-0.5-2.4-1.6-3c-1.1-0.6-2.5-1.1-4.1-1.5l-13.6-4.3c-1.7-0.5-3.1-1.4-4.5-2.6
			c-1.3-1.2-1.9-2.6-1.9-4.4c0-2.1,1-4,3-5.6c2-1.6,4.7-3.2,8-4.7C316.3,60,320,58.4,324,56.8z M330.4,26.3c4.7,0,8.6,0.9,11.7,2.7
			c3.1,1.8,4.7,4.7,4.7,8.8c0,3.2-1.1,6.3-3.2,9.4c-2.2,3.1-5.2,5.6-9.2,7.6c-4,2-8.6,3-14,3c-4.7,0-8.6-0.9-11.7-2.7
			c-3.1-1.8-4.7-4.7-4.7-8.7c0-2.4,0.6-4.8,1.8-7.1c1.2-2.4,3-4.5,5.2-6.5c2.3-2,5.1-3.5,8.4-4.7C322.6,26.9,326.3,26.3,330.4,26.3z
			 M327.8,28.1c-0.9,0-1.7,0.6-2.6,1.8c-0.9,1.2-1.6,2.8-2.4,4.9c-0.7,2.1-1.2,4.4-1.6,7.1c-0.4,2.7-0.6,5.5-0.6,8.5
			c0,2.2,0.1,3.7,0.5,4.5c0.3,0.8,0.8,1.2,1.4,1.2c1,0,2-0.6,2.9-1.9c0.9-1.2,1.7-2.9,2.4-5c0.7-2.1,1.2-4.5,1.6-7.1
			c0.4-2.7,0.6-5.4,0.6-8.3c0-1.4-0.1-2.7-0.4-3.9C329.3,28.7,328.7,28.1,327.8,28.1z M338.8,31.6l-2.1-0.7c1.1-2.8,2.7-5,5-6.8
			c2.2-1.7,4.7-2.5,7.3-2.5c2.3,0,4.1,0.6,5.2,1.9c1.1,1.3,1.7,2.8,1.7,4.7c0,1.9-0.5,3.4-1.5,4.5c-1,1.1-2.1,1.6-3.4,1.6
			c-1.1,0-2.1-0.4-3-1.3c-1-0.9-1.6-2.2-1.9-3.9c-0.3-1.7,0.1-3.9,1.2-6.6l0.4,0.7c-2.3,0.9-4.2,1.9-5.5,3.2
			C340.9,27.7,339.7,29.4,338.8,31.6z"/>
		<path d="M369.4,79.5h-17.7l12.2-43.4c0.3-1.1,0.5-1.9,0.6-2.5c0.1-0.6,0-1-0.2-1.3c-0.2-0.3-0.6-0.4-1.2-0.4c-1,0-1.9,0.5-2.8,1.4
			c-0.9,0.9-1.8,2.5-2.7,5l-2.3,6.1h-1.9l2.8-7.8c1.3-3.5,3-6.1,5.2-7.8c2.2-1.7,5-2.5,8.5-2.5c3.5,0,6.1,0.7,7.6,2.1
			c1.6,1.4,2.5,3.2,2.8,5.4c0.3,2.2,0.1,4.3-0.5,6.5L369.4,79.5z M371.7,65.2c2.7-8.1,5.2-14.8,7.6-19.9c2.3-5.1,4.5-9.1,6.7-11.9
			c2.2-2.8,4.4-4.7,6.7-5.8c2.3-1,4.8-1.5,7.5-1.5c3.3,0,5.8,0.7,7.3,2c1.5,1.3,2.4,3.1,2.5,5.4c0.1,2.3-0.3,4.9-1.2,7.6L398.7,71
			c-0.7,1.9-0.8,3-0.2,3.5c0.5,0.5,1,0.7,1.5,0.7c0.6,0,1.4-0.4,2.3-1.1c0.9-0.7,1.9-2.4,3-5.2l2.1-5.6h1.9l-2.5,7.3
			c-1.5,4.2-3.5,7-6.2,8.3c-2.7,1.3-5.4,2-8,2c-4.3,0-7.3-1.2-9-3.6c-1-1.4-1.5-3.1-1.6-5.2c-0.1-2.1,0.4-4.9,1.5-8.3l8.6-25.9
			c0.4-1.2,0.6-2.2,0.8-3c0.1-0.8,0.1-1.4,0-1.8c-0.1-0.4-0.4-0.6-0.9-0.6c-1.3,0-3,1.4-4.9,4.1c-1.9,2.8-3.9,6.4-6,11
			c-2.1,4.6-4.1,9.6-6.1,15.1c-2,5.5-3.7,11-5.1,16.6L371.7,65.2z"/>
		<path d="M431,58.5c2.1-1,4.2-2.2,6.3-3.6c2.1-1.4,4-2.9,5.7-4.6c2.7-2.6,4.8-5.6,6.5-8.9c1.7-3.3,2.5-6.9,2.5-10.8
			c0-0.9-0.1-1.6-0.4-2c-0.3-0.4-0.7-0.5-1.2-0.5c-1.7,0-3.5,1.1-5.5,3.4c-2,2.3-3.9,5.2-5.7,8.8c-1.8,3.6-3.3,7.5-4.4,11.7
			c-1.1,4.2-1.7,8.2-1.7,12c0,3.9,0.8,6.5,2.3,7.8c1.5,1.3,3.5,2,6,2c1.3,0,3.3-0.5,6-1.5c2.7-1,5.3-2.8,8-5.5l1.6,0.8
			c-1.5,2.2-3.4,4.3-5.8,6.4c-2.4,2.1-5.2,3.8-8.5,5.1c-3.3,1.3-6.9,1.9-11,1.9c-4.7,0-8.7-1.2-12.1-3.5c-3.4-2.4-5.1-5.9-5.1-10.6
			c0-3.9,0.6-7.8,1.8-11.7c1.2-3.9,3-7.5,5.2-11c2.3-3.5,5-6.6,8.2-9.2c3.2-2.7,6.7-4.8,10.5-6.4c3.9-1.5,8-2.3,12.4-2.3
			c3.5,0,6.5,0.7,8.9,2.1c2.4,1.4,3.5,3.6,3.5,6.6c0,2.5-0.7,4.9-2,7.1c-1.3,2.2-3.2,4.3-5.5,6.1c-2.3,1.8-5,3.5-7.9,5
			c-2.9,1.5-6,2.7-9.2,3.8c-3.2,1.1-6.4,1.9-9.5,2.5L431,58.5z"/>
		<path d="M483.9,79.5h-17.7l12.2-43.4c0.4-1.5,0.5-2.6,0.4-3.2c-0.1-0.6-0.6-1-1.3-1c-1,0-1.9,0.5-2.8,1.4c-0.9,0.9-1.8,2.5-2.7,5
			l-2.3,6.1h-1.9l2.8-7.8c1.3-3.7,3.3-6.4,5.8-8c2.6-1.6,5.6-2.3,9.1-2.3c3.1,0,5.3,0.7,6.7,2.1c1.4,1.4,2.2,3.2,2.5,5.4
			c0.2,2.2,0.1,4.3-0.5,6.5L483.9,79.5z M509.4,28.2c-1.3,0-2.6,0.2-4,0.6c-1.4,0.4-2.9,1.4-4.5,3.1c-1.6,1.6-3.2,4.2-5,7.9
			c-1.8,3.6-3.7,8.6-5.7,15c-2,6.4-4.1,14.6-6.3,24.5l2.1-14c2-7.8,3.8-14.2,5.5-19.2c1.7-5,3.3-9,5-11.9c1.7-2.9,3.5-4.9,5.5-6.1
			c2-1.2,4.3-1.8,7-1.8c3.1,0,5.5,0.9,7.2,2.8c1.7,1.9,2.5,4.2,2.5,6.9c0,3.3-1,6.2-3.1,8.8s-4.8,3.8-8.1,3.8
			c-2.5,0-4.3-0.6-5.6-1.9c-1.3-1.3-1.9-3.1-1.9-5.6c0-2.9,1.1-5.6,3.2-8c2.2-2.4,4.7-3.9,7.6-4.4c-0.2-0.1-0.4-0.1-0.6-0.2
			C509.9,28.2,509.7,28.2,509.4,28.2z"/>
	</g>
</g>
</svg>
